<?xml version="1.0" encoding="utf-8"?>
<!-- Generator: Adobe Illustrator 12.0.0, SVG Export Plug-In . SVG Version: 6.00 Build 51448)  -->
<!DOCTYPE svg PUBLIC "-//W3C//DTD SVG 1.1//EN" "http://www.w3.org/Graphics/SVG/1.1/DTD/svg11.dtd" [
	<!ENTITY ns_svg "http://www.w3.org/2000/svg">
	<!ENTITY ns_xlink "http://www.w3.org/1999/xlink">
]>
<svg  version="1.1" id="Layer_1" xmlns="&ns_svg;" xmlns:xlink="&ns_xlink;" width="666.167" height="493.298"
	 viewBox="0 0 666.167 493.298" overflow="visible" enable-background="new 0 0 666.167 493.298" xml:space="preserve">
<rect y="3.048" fill="none" width="26" height="27"/>
<text transform="matrix(1 0 0 1 0 20.0879)" font-family="'Myriad-Roman'" font-size="24">A</text>
<rect x="640.167" y="235.798" fill="none" width="26" height="27"/>
<text transform="matrix(1 0 0 1 640.1665 252.8379)" font-family="'Myriad-Roman'" font-size="24">B</text>
<rect x="634.333" y="464.382" fill="none" width="26" height="27"/>
<text transform="matrix(1 0 0 1 634.3335 481.4219)" font-family="'Myriad-Roman'" font-size="24">C</text>
<rect x="5.5" y="466.298" fill="none" width="26" height="27"/>
<text transform="matrix(1 0 0 1 5.5 483.3379)" font-family="'Myriad-Roman'" font-size="24">D</text>
<rect x="349.333" y="315.298" fill="none" width="26" height="27"/>
<text transform="matrix(1 0 0 1 349.3335 332.3379)" font-family="'Myriad-Roman'" font-size="24">r</text>
<g>
	<g id="source-7">
		<path fill="none" stroke="#000000" stroke-width="2" stroke-miterlimit="10" d="M630.017,459.696H21.184V24.944l608.833,221.598
			V459.696z"/>
		<path fill="none" stroke="#000000" stroke-width="2" stroke-miterlimit="10" d="M630.017,459.696
			c0-108.757-58.021-209.254-152.209-263.633c-94.187-54.377-210.229-54.377-304.416,0
			C79.206,250.442,21.184,350.939,21.184,459.696"/>
		<path fill="none" stroke="#000000" stroke-width="2" stroke-miterlimit="10" d="M325.601,459.696L429.718,173.64"/>
	</g>
</g>
</svg>
